<svg width="18" height="18" viewBox="0 0 18 18" fill="none" xmlns="http://www.w3.org/2000/svg">
<path d="M6.00072 9C6.00072 7.34321 7.3435 5.99976 9.00036 5.99976C10.6572 5.99976 12.0007 7.34321 12.0007 9C12.0007 10.6568 10.6572 12.0002 9.00036 12.0002C7.3435 12.0002 6.00072 10.6568 6.00072 9ZM4.37878 9C4.37878 11.5524 6.44786 13.6214 9.00036 13.6214C11.5529 13.6214 13.6219 11.5524 13.6219 9C13.6219 6.4476 11.5529 4.37861 9.00036 4.37861C6.44786 4.37861 4.37878 6.4476 4.37878 9ZM12.7249 4.19537C12.7248 4.40897 12.788 4.6178 12.9066 4.79546C13.0252 4.97311 13.1939 5.1116 13.3912 5.19342C13.5885 5.27525 13.8057 5.29672 14.0152 5.25513C14.2247 5.21354 14.4172 5.11076 14.5683 4.95978C14.7194 4.8088 14.8223 4.6164 14.8641 4.40692C14.9059 4.19744 14.8846 3.98028 14.8029 3.7829C14.7212 3.58552 14.5829 3.4168 14.4053 3.29805C14.2277 3.17931 14.0189 3.11589 13.8053 3.1158H13.8049C13.5186 3.11593 13.244 3.2297 13.0415 3.43212C12.839 3.63454 12.7251 3.90905 12.7249 4.19537ZM5.36421 16.3258C4.48672 16.2858 4.00977 16.1397 3.69281 16.0162C3.2726 15.8526 2.97278 15.6578 2.65755 15.343C2.34233 15.0282 2.1472 14.7287 1.98433 14.3085C1.86077 13.9917 1.7146 13.5146 1.67472 12.6372C1.63108 11.6885 1.62237 11.4035 1.62237 9.00007C1.62237 6.59664 1.6318 6.31246 1.67472 5.36299C1.71468 4.48553 1.86192 4.00939 1.98433 3.69166C2.14792 3.27146 2.34276 2.97166 2.65755 2.65644C2.97235 2.34122 3.27188 2.1461 3.69281 1.98324C4.00962 1.85969 4.48672 1.71353 5.36421 1.67364C6.31292 1.63001 6.59791 1.6213 9.00036 1.6213C11.4028 1.6213 11.6881 1.63073 12.6376 1.67364C13.5151 1.7136 13.9912 1.86084 14.309 1.98324C14.7292 2.1461 15.029 2.34166 15.3442 2.65644C15.6595 2.97122 15.8539 3.27146 16.0175 3.69166C16.141 4.00846 16.2872 4.48553 16.3271 5.36299C16.3707 6.31246 16.3794 6.59664 16.3794 9.00007C16.3794 11.4035 16.3707 11.6877 16.3271 12.6372C16.2871 13.5146 16.1402 13.9915 16.0175 14.3085C15.8539 14.7287 15.659 15.0285 15.3442 15.343C15.0294 15.6575 14.7292 15.8526 14.309 16.0162C13.9922 16.1397 13.5151 16.2859 12.6376 16.3258C11.6889 16.3694 11.4039 16.3781 9.00036 16.3781C6.59683 16.3781 6.31264 16.3694 5.36421 16.3258ZM5.28969 0.054504C4.33155 0.098136 3.67683 0.250056 3.10505 0.472536C2.5129 0.702288 2.01162 1.01052 1.51069 1.51063C1.00977 2.01074 0.702316 2.5128 0.472555 3.10493C0.250066 3.67704 0.0981399 4.33138 0.0545062 5.28948C0.0101524 6.2491 0 6.55589 0 9C0 11.4441 0.0101524 11.7509 0.0545062 12.7105C0.0981399 13.6687 0.250066 14.323 0.472555 14.8951C0.702316 15.4868 1.00984 15.9895 1.51069 16.4894C2.01154 16.9893 2.5129 17.2971 3.10505 17.5275C3.67791 17.7499 4.33155 17.9019 5.28969 17.9455C6.24985 17.9891 6.55615 18 9.00036 18C11.4446 18 11.7514 17.9898 12.711 17.9455C13.6692 17.9019 14.3235 17.7499 14.8957 17.5275C15.4875 17.2971 15.9891 16.9895 16.49 16.4894C16.991 15.9893 17.2978 15.4868 17.5282 14.8951C17.7507 14.323 17.9033 13.6686 17.9462 12.7105C17.9898 11.7502 18 11.4441 18 9C18 6.55589 17.9898 6.2491 17.9462 5.28948C17.9026 4.3313 17.7507 3.67668 17.5282 3.10493C17.2978 2.51316 16.9902 2.01154 16.49 1.51063C15.9899 1.00973 15.4875 0.702288 14.8964 0.472536C14.3235 0.250056 13.6692 0.097416 12.7117 0.054504C11.7521 0.010872 11.4453 0 9.00108 0C6.55687 0 6.24985 0.010152 5.28969 0.054504Z" fill="#3C3D3E"/>
</svg>
