<svg width="12" height="18" fill="none" xmlns="http://www.w3.org/2000/svg">
  <path d="M6 2.955c1.022 0 1.852.831 1.852 1.852 0 1.021-.83 1.852-1.852 1.852-1.02 0-1.852-.831-1.852-1.852 0-1.021.832-1.852 1.852-1.852zM6 9.28a4.477 4.477 0 0 0 4.474-4.472A4.478 4.478 0 0 0 6 .333a4.479 4.479 0 0 0-4.473 4.474A4.477 4.477 0 0 0 6 9.28zm1.81 3.65a8.376 8.376 0 0 0 2.598-1.076 1.31 1.31 0 1 0-1.396-2.22 5.68 5.68 0 0 1-6.023 0 1.31 1.31 0 0 0-1.976 1.401c.077.339.286.633.58.819a8.385 8.385 0 0 0 2.597 1.075L1.689 15.43a1.31 1.31 0 1 0 1.854 1.854L6 14.825l2.458 2.458a1.308 1.308 0 0 0 2.137-.425 1.308 1.308 0 0 0-.285-1.428l-2.5-2.502z" fill="#fff"/>
</svg>
