<svg width="19" height="19" viewBox="0 0 19 19" fill="none" xmlns="http://www.w3.org/2000/svg">
<path fill-rule="evenodd" clip-rule="evenodd" d="M2.99805 8.20532C2.99805 5.05141 5.5476 2.49902 8.68727 2.49902C11.8269 2.49902 14.3765 5.05141 14.3765 8.20532C14.3765 11.3592 11.8269 13.9116 8.68727 13.9116C5.5476 13.9116 2.99805 11.3592 2.99805 8.20532ZM8.68727 0.499023C4.43823 0.499023 0.998047 3.95165 0.998047 8.20532C0.998047 12.459 4.43823 15.9116 8.68727 15.9116C12.9363 15.9116 16.3765 12.459 16.3765 8.20532C16.3765 3.95165 12.9363 0.499023 8.68727 0.499023ZM13.5278 14.3629L13.2555 14.5502L17.2258 18.5005L18.9996 16.7223L15.0157 12.7274L14.7099 13.174L14.3578 13.5971L14.0869 13.8723L13.788 14.1352L13.5278 14.3629Z" fill="#697076"/>
</svg>
