<svg width="19" height="18" viewBox="0 0 19 18" fill="none" xmlns="http://www.w3.org/2000/svg">
  <path d="M7.30957 0C9.03348 0 10.6868 0.684819 11.9058 1.90381C13.1248 3.12279 13.8096 4.77609 13.8096 6.5C13.8096 8.11 13.2196 9.59 12.2496 10.73L12.5196 11H13.3096L18.3096 16L16.8096 17.5L11.8096 12.5V11.71L11.5396 11.44C10.3996 12.41 8.91957 13 7.30957 13C5.58566 13 3.93236 12.3152 2.71338 11.0962C1.49439 9.87721 0.80957 8.22391 0.80957 6.5C0.80957 4.77609 1.49439 3.12279 2.71338 1.90381C3.93236 0.684819 5.58566 0 7.30957 0ZM7.30957 2C4.80957 2 2.80957 4 2.80957 6.5C2.80957 9 4.80957 11 7.30957 11C9.80957 11 11.8096 9 11.8096 6.5C11.8096 4 9.80957 2 7.30957 2Z" fill="white"></path>
</svg>