<svg width="14" height="13" fill="none" xmlns="http://www.w3.org/2000/svg">
  <path fill-rule="evenodd" clip-rule="evenodd" d="M10.045 12.184c.787.345 1.082-.377 1.082-.377L13.211 1.34c-.016-.706-.968-.28-.968-.28L.578 5.639s-.557.197-.508.542c.049.344.492.508.492.508l2.937.985s.886 2.903 1.066 3.461c.164.542.312.558.312.558.164.066.311-.05.311-.05L7.092 9.92l2.953 2.264zm.508-8.99s.41-.246.394 0c0 0 .065.033-.148.262-.197.197-4.84 4.364-5.463 4.922a.172.172 0 0 0-.082.148l-.18 1.542c-.034.164-.247.18-.296.033l-.771-2.527a.242.242 0 0 1 .098-.279l6.448-4.101z" fill="#fff"/>
</svg>
