<svg width="22" height="21" viewBox="0 0 22 21" fill="none" xmlns="http://www.w3.org/2000/svg">
<path d="M21.8602 10.5719C21.6636 10.303 16.9808 3.98877 10.9999 3.98877C5.01902 3.98877 0.33593 10.303 0.139606 10.5716C-0.0465352 10.8267 -0.0465352 11.1726 0.139606 11.4277C0.33593 11.6965 5.01902 18.0107 10.9999 18.0107C16.9808 18.0107 21.6636 11.6965 21.8602 11.4279C22.0466 11.1729 22.0466 10.8267 21.8602 10.5719ZM10.9999 16.5602C6.59434 16.5602 2.77867 12.3693 1.64914 10.9993C2.7772 9.628 6.58489 5.43931 10.9999 5.43931C15.4052 5.43931 19.2206 9.62946 20.3506 11.0003C19.2226 12.3715 15.4149 16.5602 10.9999 16.5602Z" fill="#0D2D42" fill-opacity="0.8"/>
<path d="M11.0001 6.64844C8.60064 6.64844 6.64844 8.60064 6.64844 11.0001C6.64844 13.3996 8.60064 15.3518 11.0001 15.3518C13.3996 15.3518 15.3518 13.3996 15.3518 11.0001C15.3518 8.60064 13.3996 6.64844 11.0001 6.64844ZM11.0001 13.9012C9.40037 13.9012 8.09902 12.5998 8.09902 11.0001C8.09902 9.40042 9.40042 8.09902 11.0001 8.09902C12.5998 8.09902 13.9012 9.40042 13.9012 11.0001C13.9012 12.5998 12.5998 13.9012 11.0001 13.9012Z" fill="#0D2D42" fill-opacity="0.8"/>
</svg>
