<svg width="18" height="11" fill="none" xmlns="http://www.w3.org/2000/svg">
  <path fill-rule="evenodd" clip-rule="evenodd" d="M17.269.956c.12-.401 0-.697-.574-.697H14.8c-.466 0-.689.238-.812.508l-.024.057c-.114.27-1.04 2.42-2.32 3.849-.441.442-.642.582-.883.582-.12 0-.295-.14-.295-.542V.956c0-.482-.14-.697-.542-.697h-2.98c-.301 0-.482.224-.482.436 0 .457.683.563.753 1.848v2.793c0 .612-.11.723-.352.723-.642 0-2.206-2.361-3.134-5.062C3.547.47 3.364.259 2.88.259H.983c-.541 0-.65.255-.65.537 0 .502.643 2.993 2.994 6.288 1.567 2.25 3.774 3.47 5.783 3.47 1.206 0 1.355-.272 1.355-.738v-1.7c0-.543.114-.65.495-.65.282 0 .764.14 1.89 1.225 1.285 1.285 1.497 1.862 2.22 1.862h1.896c.542 0 .813-.27.657-.805-.171-.533-.785-1.306-1.6-2.222-.442-.523-1.105-1.085-1.305-1.366-.251-.323-.215-.485-.061-.745.04-.066.082-.13.127-.193.379-.541 2.268-3.272 2.485-4.266z" fill="#fff"/>
</svg>
