<svg width="16" height="17" fill="none" xmlns="http://www.w3.org/2000/svg">
  <path d="M13.823 3.156A7.38 7.38 0 0 0 8.535.943c-4.18 0-7.542 3.402-7.5 7.542 0 1.312.368 2.583.983 3.73L.952 16.11l3.976-1.025a7.32 7.32 0 0 0 3.566.902c4.14 0 7.502-3.403 7.502-7.543a7.44 7.44 0 0 0-2.173-5.288zm-5.288 11.56c-1.106 0-2.213-.287-3.156-.861l-.246-.123-2.377.615.615-2.337-.164-.245C1.403 8.854 2.264 5 5.215 3.197c2.952-1.803 6.764-.942 8.567 2.009 1.804 2.951.943 6.763-2.008 8.567a5.977 5.977 0 0 1-3.239.943zm3.608-4.55l-.451-.205s-.656-.287-1.066-.492c-.041 0-.082-.041-.123-.041a.593.593 0 0 0-.287.082s-.04.041-.615.697a.225.225 0 0 1-.205.123h-.04a.31.31 0 0 1-.165-.082l-.205-.082c-.45-.205-.86-.451-1.188-.779-.082-.082-.205-.164-.287-.246-.287-.287-.574-.615-.78-.984l-.04-.082c-.041-.04-.041-.082-.082-.164 0-.082 0-.164.04-.205 0 0 .165-.205.288-.328.082-.082.123-.205.205-.286.082-.123.123-.287.082-.41-.041-.205-.533-1.312-.656-1.558a.474.474 0 0 0-.287-.205H5.83c-.082 0-.164.041-.246.041l-.04.041c-.083.041-.165.123-.247.164-.082.082-.123.164-.205.246a2.09 2.09 0 0 0-.45 1.27c0 .329.081.656.204.943l.041.123c.37.78.861 1.476 1.517 2.09l.164.165c.123.123.246.205.328.328a7.326 7.326 0 0 0 2.951 1.557c.123.041.287.041.41.082h.41c.205 0 .45-.082.615-.163.123-.082.205-.082.287-.164l.082-.082c.082-.082.164-.123.246-.205.082-.082.164-.164.205-.246.082-.164.123-.37.164-.574v-.287s-.041-.041-.123-.082z" fill="#fff"/>
</svg>
