<?xml version="1.0" encoding="UTF-8"?><!DOCTYPE svg PUBLIC "-//W3C//DTD SVG 1.1//EN" "http://www.w3.org/Graphics/SVG/1.1/DTD/svg11.dtd"><svg xmlns="http://www.w3.org/2000/svg" xmlns:xlink="http://www.w3.org/1999/xlink"><symbol id="icon-facebook" viewBox="0 0 30 30">
    <rect width="30" height="30" rx="4"/>
    <path d="M16.001 25v-9.123h3.063l.458-3.555h-3.52v-2.27c0-1.03.285-1.731 1.761-1.731l1.883-.001V5.14A25.23 25.23 0 0 0 16.903 5c-2.715 0-4.573 1.657-4.573 4.7v2.622H9.26v3.555h3.07V25H16z"/>
</symbol><symbol id="icon-instagram" viewBox="0 0 30 30">
    <rect width="30" height="30" rx="4"/>
    <path d="M12 15a3 3 0 1 1 6 0 3 3 0 0 1-6 0zm-1.621 0a4.621 4.621 0 1 0 9.243 0 4.621 4.621 0 0 0-9.243 0zm8.346-4.805a1.08 1.08 0 1 0 1.08-1.08 1.08 1.08 0 0 0-1.08 1.08zm-7.36 12.13c-.878-.04-1.355-.185-1.672-.309a2.797 2.797 0 0 1-1.035-.673 2.777 2.777 0 0 1-.674-1.035c-.123-.316-.27-.793-.31-1.67-.043-.95-.052-1.235-.052-3.638 0-2.403.01-2.688.053-3.637.04-.877.187-1.354.31-1.671.163-.42.358-.72.673-1.036.314-.315.614-.51 1.035-.673.317-.123.794-.27 1.671-.31.949-.043 1.234-.052 3.636-.052 2.403 0 2.688.01 3.638.053.877.04 1.353.187 1.671.31.42.162.72.358 1.035.672.316.315.51.615.673 1.036.124.316.27.793.31 1.671.044.95.052 1.234.052 3.637 0 2.404-.008 2.688-.052 3.637-.04.878-.187 1.354-.31 1.671-.163.42-.358.72-.673 1.035-.315.314-.615.51-1.035.673-.317.124-.794.27-1.671.31-.95.043-1.234.052-3.638.052-2.403 0-2.687-.009-3.636-.052zm-.075-16.27c-.958.043-1.613.195-2.185.418A4.415 4.415 0 0 0 7.511 7.51c-.501.5-.809 1.002-1.038 1.594-.223.572-.375 1.226-.418 2.184C6.01 12.25 6 12.556 6 15s.01 2.75.055 3.71c.043.959.195 1.613.418 2.185A4.4 4.4 0 0 0 7.51 22.49c.5.5 1.002.808 1.594 1.038.573.223 1.226.375 2.185.418.96.044 1.266.055 3.71.055 2.445 0 2.751-.01 3.711-.055.958-.043 1.613-.195 2.185-.418a4.426 4.426 0 0 0 1.594-1.038c.501-.5.808-1.002 1.038-1.594.223-.572.375-1.226.418-2.184.044-.96.054-1.267.054-3.711s-.01-2.75-.054-3.71c-.043-.959-.195-1.613-.418-2.185A4.425 4.425 0 0 0 22.49 7.51c-.5-.501-1.002-.809-1.594-1.038-.573-.223-1.227-.376-2.184-.418-.96-.044-1.267-.055-3.71-.055-2.445 0-2.752.01-3.712.054z"/>
</symbol><symbol id="icon-telegram" viewBox="0 0 30 30">
    <rect width="30" height="30" rx="4"/>
    <path fill-rule="evenodd" clip-rule="evenodd" d="M18.513 20.982c.909.398 1.25-.435 1.25-.435l2.404-12.078c-.02-.814-1.117-.322-1.117-.322L7.59 13.43s-.643.227-.586.625c.056.397.567.586.567.586l3.389 1.136s1.022 3.351 1.23 3.995c.19.624.36.643.36.643.19.076.36-.056.36-.056l2.196-1.988 3.407 2.612zm.587-10.374s.473-.284.454 0c0 0 .076.038-.17.303-.227.227-5.585 5.036-6.304 5.68a.199.199 0 0 0-.095.17l-.208 1.78c-.038.189-.284.207-.34.037l-.89-2.915a.279.279 0 0 1 .113-.322l7.44-4.733z"/>
</symbol></svg>