<?xml version="1.0" encoding="UTF-8"?><!DOCTYPE svg PUBLIC "-//W3C//DTD SVG 1.1//EN" "http://www.w3.org/Graphics/SVG/1.1/DTD/svg11.dtd"><svg xmlns="http://www.w3.org/2000/svg" xmlns:xlink="http://www.w3.org/1999/xlink"><symbol id="icon-fb" viewBox="0 0 10 18">
    <path d="M5.868 17.667V9.76h2.654l.397-3.081H5.868V4.712c0-.893.248-1.5 1.527-1.5l1.632-.001V.455A21.868 21.868 0 0 0 6.649.333c-2.352 0-3.963 1.436-3.963 4.074v2.272H.026V9.76h2.66v7.907h3.182z"/>
</symbol><symbol id="icon-ok" viewBox="0 0 12 18">
    <path d="M6 2.955c1.022 0 1.852.831 1.852 1.852 0 1.021-.83 1.852-1.852 1.852a1.855 1.855 0 0 1-1.852-1.852c0-1.021.832-1.852 1.852-1.852zM6 9.28a4.477 4.477 0 0 0 4.474-4.472A4.478 4.478 0 0 0 6 .333a4.479 4.479 0 0 0-4.473 4.474A4.477 4.477 0 0 0 6 9.28zm1.81 3.65a8.376 8.376 0 0 0 2.598-1.076 1.31 1.31 0 1 0-1.396-2.22 5.68 5.68 0 0 1-6.023 0 1.31 1.31 0 0 0-1.976 1.401c.077.339.286.633.58.819a8.385 8.385 0 0 0 2.597 1.075L1.689 15.43a1.31 1.31 0 1 0 1.854 1.854L6 14.825l2.458 2.458a1.308 1.308 0 0 0 2.137-.425 1.308 1.308 0 0 0-.285-1.428l-2.5-2.502z"/>
</symbol><symbol id="icon-telegram" viewBox="0 0 14 13">
    <path fill-rule="evenodd" clip-rule="evenodd" d="M10.045 12.184c.787.345 1.082-.377 1.082-.377L13.211 1.34c-.016-.706-.968-.28-.968-.28L.578 5.639s-.557.197-.508.542c.049.344.492.508.492.508l2.937.985s.886 2.903 1.066 3.461c.164.542.312.558.312.558.164.066.311-.05.311-.05L7.092 9.92l2.953 2.264zm.508-8.99s.41-.246.394 0c0 0 .065.033-.148.262-.197.197-4.84 4.364-5.463 4.922a.172.172 0 0 0-.082.148l-.18 1.542c-.034.164-.247.18-.296.033l-.771-2.527a.242.242 0 0 1 .098-.279l6.448-4.101z"/>
</symbol><symbol id="icon-vk" viewBox="0 0 18 11">
    <path fill-rule="evenodd" clip-rule="evenodd" d="M17.269.956c.12-.401 0-.697-.574-.697H14.8c-.466 0-.689.238-.812.508l-.024.057c-.114.27-1.04 2.42-2.32 3.849-.441.442-.642.582-.883.582-.12 0-.295-.14-.295-.542V.956c0-.482-.14-.697-.542-.697h-2.98c-.301 0-.482.224-.482.436 0 .457.683.563.753 1.848v2.793c0 .612-.11.723-.352.723-.642 0-2.206-2.361-3.134-5.062C3.547.47 3.364.259 2.88.259H.983c-.541 0-.65.255-.65.537 0 .502.643 2.993 2.994 6.288 1.567 2.25 3.774 3.47 5.783 3.47 1.206 0 1.355-.272 1.355-.738v-1.7c0-.543.114-.65.495-.65.282 0 .764.14 1.89 1.225 1.285 1.285 1.497 1.862 2.22 1.862h1.896c.542 0 .813-.27.657-.805-.171-.533-.785-1.306-1.6-2.222-.442-.523-1.105-1.085-1.305-1.366-.251-.323-.215-.485-.061-.745.04-.066.082-.13.127-.193.379-.541 2.268-3.272 2.485-4.266z"/>
</symbol><symbol id="icon-whatsapp" viewBox="0 0 16 17">
    <path d="M13.823 3.156A7.38 7.38 0 0 0 8.535.943c-4.18 0-7.542 3.402-7.5 7.542 0 1.312.368 2.583.983 3.73L.952 16.11l3.976-1.025a7.32 7.32 0 0 0 3.566.902c4.14 0 7.502-3.403 7.502-7.543a7.44 7.44 0 0 0-2.173-5.288zm-5.288 11.56a6.09 6.09 0 0 1-3.156-.861l-.246-.123-2.377.615.615-2.337-.164-.245C1.403 8.854 2.264 5 5.215 3.197c2.952-1.803 6.764-.942 8.567 2.009 1.804 2.951.943 6.763-2.008 8.567a5.977 5.977 0 0 1-3.239.943zm3.608-4.55l-.451-.205s-.656-.287-1.066-.492c-.041 0-.082-.041-.123-.041a.593.593 0 0 0-.287.082s-.04.041-.615.697a.225.225 0 0 1-.205.123h-.04a.31.31 0 0 1-.165-.082l-.205-.082c-.45-.205-.86-.451-1.188-.779-.082-.082-.205-.164-.287-.246-.287-.287-.574-.615-.78-.984l-.04-.082c-.041-.04-.041-.082-.082-.164 0-.082 0-.164.04-.205 0 0 .165-.205.288-.328.082-.082.123-.205.205-.286.082-.123.123-.287.082-.41-.041-.205-.533-1.312-.656-1.558a.474.474 0 0 0-.287-.205H5.83c-.082 0-.164.041-.246.041l-.04.041c-.083.041-.165.123-.247.164-.082.082-.123.164-.205.246a2.09 2.09 0 0 0-.45 1.27c0 .329.081.656.204.943l.041.123c.37.78.861 1.476 1.517 2.09l.164.165c.123.123.246.205.328.328a7.326 7.326 0 0 0 2.951 1.557c.123.041.287.041.41.082h.41c.205 0 .45-.082.615-.163.123-.082.205-.082.287-.164l.082-.082c.082-.082.164-.123.246-.205.082-.082.164-.164.205-.246.082-.164.123-.37.164-.574v-.287s-.041-.041-.123-.082z"/>
</symbol></svg>
