<svg width="30" height="30" viewBox="0 0 30 30" fill="none" xmlns="http://www.w3.org/2000/svg">
<rect width="30" height="30" rx="4" fill="url(#paint0_linear)"/>
<path d="M12.0007 15C12.0007 13.3432 13.3435 11.9998 15.0004 11.9998C16.6572 11.9998 18.0007 13.3432 18.0007 15C18.0007 16.6568 16.6572 18.0002 15.0004 18.0002C13.3435 18.0002 12.0007 16.6568 12.0007 15ZM10.3788 15C10.3788 17.5524 12.4479 19.6214 15.0004 19.6214C17.5529 19.6214 19.6219 17.5524 19.6219 15C19.6219 12.4476 17.5529 10.3786 15.0004 10.3786C12.4479 10.3786 10.3788 12.4476 10.3788 15ZM18.7249 10.1954C18.7248 10.409 18.788 10.6178 18.9066 10.7955C19.0252 10.9731 19.1939 11.1116 19.3912 11.1934C19.5885 11.2752 19.8057 11.2967 20.0152 11.2551C20.2247 11.2135 20.4172 11.1108 20.5683 10.9598C20.7194 10.8088 20.8223 10.6164 20.8641 10.4069C20.9059 10.1974 20.8846 9.98028 20.8029 9.7829C20.7212 9.58552 20.5829 9.4168 20.4053 9.29805C20.2277 9.17931 20.0189 9.11589 19.8053 9.1158H19.8049C19.5186 9.11593 19.244 9.2297 19.0415 9.43212C18.839 9.63454 18.7251 9.90905 18.7249 10.1954ZM11.3642 22.3258C10.4867 22.2858 10.0098 22.1397 9.69281 22.0162C9.2726 21.8526 8.97278 21.6578 8.65755 21.343C8.34233 21.0282 8.1472 20.7287 7.98433 20.3085C7.86077 19.9917 7.7146 19.5146 7.67472 18.6372C7.63108 17.6885 7.62237 17.4035 7.62237 15.0001C7.62237 12.5966 7.6318 12.3125 7.67472 11.363C7.71468 10.4855 7.86192 10.0094 7.98433 9.69166C8.14792 9.27146 8.34276 8.97166 8.65755 8.65644C8.97235 8.34122 9.27188 8.1461 9.69281 7.98324C10.0096 7.85969 10.4867 7.71353 11.3642 7.67364C12.3129 7.63001 12.5979 7.6213 15.0004 7.6213C17.4028 7.6213 17.6881 7.63073 18.6376 7.67364C19.5151 7.7136 19.9912 7.86084 20.309 7.98324C20.7292 8.1461 21.029 8.34166 21.3442 8.65644C21.6595 8.97122 21.8539 9.27146 22.0175 9.69166C22.141 10.0085 22.2872 10.4855 22.3271 11.363C22.3707 12.3125 22.3794 12.5966 22.3794 15.0001C22.3794 17.4035 22.3707 17.6877 22.3271 18.6372C22.2871 19.5146 22.1402 19.9915 22.0175 20.3085C21.8539 20.7287 21.659 21.0285 21.3442 21.343C21.0294 21.6575 20.7292 21.8526 20.309 22.0162C19.9922 22.1397 19.5151 22.2859 18.6376 22.3258C17.6889 22.3694 17.4039 22.3781 15.0004 22.3781C12.5968 22.3781 12.3126 22.3694 11.3642 22.3258ZM11.2897 6.0545C10.3315 6.09814 9.67683 6.25006 9.10505 6.47254C8.5129 6.70229 8.01162 7.01052 7.51069 7.51063C7.00977 8.01074 6.70232 8.5128 6.47255 9.10493C6.25007 9.67704 6.09814 10.3314 6.05451 11.2895C6.01015 12.2491 6 12.5559 6 15C6 17.4441 6.01015 17.7509 6.05451 18.7105C6.09814 19.6687 6.25007 20.323 6.47255 20.8951C6.70232 21.4868 7.00984 21.9895 7.51069 22.4894C8.01154 22.9893 8.5129 23.2971 9.10505 23.5275C9.67791 23.7499 10.3315 23.9019 11.2897 23.9455C12.2499 23.9891 12.5562 24 15.0004 24C17.4446 24 17.7514 23.9898 18.711 23.9455C19.6692 23.9019 20.3235 23.7499 20.8957 23.5275C21.4875 23.2971 21.9891 22.9895 22.49 22.4894C22.991 21.9893 23.2978 21.4868 23.5282 20.8951C23.7507 20.323 23.9033 19.6686 23.9462 18.7105C23.9898 17.7502 24 17.4441 24 15C24 12.5559 23.9898 12.2491 23.9462 11.2895C23.9026 10.3313 23.7507 9.67668 23.5282 9.10493C23.2978 8.51316 22.9902 8.01154 22.49 7.51063C21.9899 7.00973 21.4875 6.70229 20.8964 6.47254C20.3235 6.25006 19.6692 6.09742 18.7117 6.0545C17.7521 6.01087 17.4453 6 15.0011 6C12.5569 6 12.2499 6.01015 11.2897 6.0545Z" fill="white"/>
<defs>
<linearGradient id="paint0_linear" x1="30" y1="0" x2="0" y2="30" gradientUnits="userSpaceOnUse">
<stop stop-color="#6034DC"/>
<stop offset="0.510417" stop-color="#DE421F"/>
<stop offset="1" stop-color="#F4C82B"/>
</linearGradient>
</defs>
</svg>
