<?xml version="1.0" encoding="UTF-8"?><!DOCTYPE svg PUBLIC "-//W3C//DTD SVG 1.1//EN" "http://www.w3.org/Graphics/SVG/1.1/DTD/svg11.dtd"><svg xmlns="http://www.w3.org/2000/svg" xmlns:xlink="http://www.w3.org/1999/xlink"><defs>
        <clipPath id="a">
            <path transform="translate(.81 12)" d="M0 0h17v3H0z"/>
        </clipPath>
        <clipPath id="b">
            <path transform="translate(.81)" d="M0 0h22v3H0z"/>
        </clipPath>
        <clipPath id="c">
            <path transform="translate(.81 6)" d="M0 0h9v2H0z"/>
        </clipPath>
    </defs><symbol id="icon-facebook" viewBox="0 0 10 19">
    <title>
        facebook
    </title>
    <path d="M9.766.157v2.946H8.014c-.64 0-1.071.134-1.295.402-.223.268-.335.67-.335 1.205v2.11h3.27l-.435 3.303H6.384v8.471H2.97v-8.47H.123V6.82H2.97V4.387c0-1.384.387-2.457 1.161-3.22C4.904.404 5.934.023 7.222.023c1.093 0 1.941.045 2.544.134z" fill-rule="evenodd"/>
</symbol><symbol id="icon-fb" viewBox="0 0 10 18">
    <path d="M5.868 17.667V9.76h2.654l.397-3.081H5.868V4.712c0-.893.248-1.5 1.527-1.5l1.632-.001V.455A21.868 21.868 0 0 0 6.649.333c-2.352 0-3.963 1.436-3.963 4.074v2.272H.026V9.76h2.66v7.907h3.182z"/>
</symbol><symbol id="icon-instagram" viewBox="0 0 18 18">
    <path d="M6 9a3 3 0 1 1 6 0 3 3 0 0 1-6 0zM4.38 9a4.621 4.621 0 1 0 9.243 0 4.621 4.621 0 0 0-9.243 0zm8.346-4.805a1.08 1.08 0 1 0 1.08-1.08 1.08 1.08 0 0 0-1.08 1.08zm-7.36 12.13c-.878-.04-1.355-.185-1.672-.309a2.797 2.797 0 0 1-1.035-.673 2.777 2.777 0 0 1-.674-1.034c-.123-.317-.27-.794-.31-1.672-.043-.949-.052-1.234-.052-3.637s.01-2.688.053-3.637c.04-.877.187-1.354.31-1.671.163-.42.358-.72.673-1.036.314-.315.614-.51 1.035-.673.317-.123.794-.27 1.671-.31.949-.043 1.234-.052 3.636-.052 2.403 0 2.688.01 3.638.053.877.04 1.353.187 1.671.31.42.162.72.358 1.035.672.316.315.51.615.673 1.036.124.316.27.794.31 1.671.044.95.052 1.234.052 3.637s-.008 2.688-.052 3.637c-.04.878-.187 1.354-.31 1.671-.163.42-.358.72-.673 1.035-.315.315-.615.51-1.035.673-.317.124-.794.27-1.671.31-.95.043-1.234.052-3.638.052-2.403 0-2.687-.009-3.636-.052zM5.29.056C4.332.098 3.677.25 3.105.473A4.415 4.415 0 0 0 1.511 1.51C1.01 2.01.702 2.513.473 3.105.25 3.677.098 4.33.055 5.289.01 6.25 0 6.556 0 9s.01 2.75.055 3.71c.043.959.195 1.613.418 2.185A4.4 4.4 0 0 0 1.51 16.49c.5.5 1.002.808 1.594 1.038.573.223 1.227.375 2.185.418C6.25 17.99 6.556 18 9 18c2.445 0 2.751-.01 3.711-.055.958-.043 1.612-.195 2.185-.418a4.426 4.426 0 0 0 1.594-1.038c.501-.5.808-1.002 1.038-1.594.223-.572.375-1.226.418-2.184C17.99 11.75 18 11.444 18 9s-.01-2.75-.054-3.71c-.043-.959-.195-1.613-.418-2.185A4.425 4.425 0 0 0 16.49 1.51c-.5-.501-1.002-.809-1.594-1.038C14.323.25 13.67.097 12.712.055 11.752.01 11.445 0 9.002 0 6.556 0 6.25.01 5.29.055z"/>
</symbol><symbol id="icon-menu-icon" viewBox="0 0 23 15">
    <g clip-path="url(#a)">
        <path d="M.81 12h17v2h-17v-2z"/>
    </g>
    <g clip-path="url(#b)">
        <path d="M.81 0h22v1.833h-22V0zm0 4.583h22v1.834h-22V4.583zm0 4.584h22V11h-22V9.167z"/>
    </g>
    <g clip-path="url(#c)">
        <path d="M.81 6h12v1.833h-12V6zm0 4.583h12v1.834h-12v-1.834zm0 4.584h12V17h-12v-1.833z"/>
    </g>
    
</symbol><symbol id="icon-ok" viewBox="0 0 12 18">
    <path d="M6 2.955c1.022 0 1.852.831 1.852 1.852 0 1.021-.83 1.852-1.852 1.852a1.855 1.855 0 0 1-1.852-1.852c0-1.021.832-1.852 1.852-1.852zM6 9.28a4.477 4.477 0 0 0 4.474-4.472A4.478 4.478 0 0 0 6 .333a4.479 4.479 0 0 0-4.473 4.474A4.477 4.477 0 0 0 6 9.28zm1.81 3.65a8.376 8.376 0 0 0 2.598-1.076 1.31 1.31 0 1 0-1.396-2.22 5.68 5.68 0 0 1-6.023 0 1.31 1.31 0 0 0-1.976 1.401c.077.339.286.633.58.819a8.385 8.385 0 0 0 2.597 1.075L1.689 15.43a1.31 1.31 0 1 0 1.854 1.854L6 14.825l2.458 2.458a1.308 1.308 0 0 0 2.137-.425 1.308 1.308 0 0 0-.285-1.428l-2.5-2.502z"/>
</symbol><symbol id="icon-search-icon" viewBox="0 0 19 19">
    <path fill-rule="evenodd" clip-rule="evenodd" d="M2.998 8.205c0-3.154 2.55-5.706 5.69-5.706 3.139 0 5.688 2.552 5.688 5.706 0 3.154-2.55 5.707-5.689 5.707-3.14 0-5.689-2.553-5.689-5.707zM8.688.5c-4.25 0-7.69 3.453-7.69 7.706 0 4.254 3.44 7.707 7.69 7.707 4.248 0 7.688-3.453 7.688-7.707C16.377 3.952 12.937.5 8.688.5zm4.84 13.864l-.273.187 3.97 3.95L19 16.723l-3.984-3.995-.306.447-.352.423-.271.275-.299.263-.26.228z"/>
</symbol><symbol id="icon-telegram" viewBox="0 0 14 13">
    <path fill-rule="evenodd" clip-rule="evenodd" d="M10.045 12.184c.787.345 1.082-.377 1.082-.377L13.211 1.34c-.016-.706-.968-.28-.968-.28L.578 5.639s-.557.197-.508.542c.049.344.492.508.492.508l2.937.985s.886 2.903 1.066 3.461c.164.542.312.558.312.558.164.066.311-.05.311-.05L7.092 9.92l2.953 2.264zm.508-8.99s.41-.246.394 0c0 0 .065.033-.148.262-.197.197-4.84 4.364-5.463 4.922a.172.172 0 0 0-.082.148l-.18 1.542c-.034.164-.247.18-.296.033l-.771-2.527a.242.242 0 0 1 .098-.279l6.448-4.101z"/>
</symbol><symbol id="icon-views" viewBox="0 0 22 21">
    <path d="M21.86 10.572c-.196-.269-4.88-6.583-10.86-6.583-5.981 0-10.664 6.314-10.86 6.583a.726.726 0 0 0 0 .856c.196.268 4.879 6.583 10.86 6.583 5.98 0 10.664-6.314 10.86-6.583a.725.725 0 0 0 0-.856zM11 16.56c-4.406 0-8.221-4.19-9.35-5.56C2.776 9.627 6.584 5.44 11 5.44c4.405 0 8.22 4.19 9.35 5.56-1.127 1.371-4.935 5.56-9.35 5.56z" fill-opacity=".8"/>
    <path d="M11 6.648A4.357 4.357 0 0 0 6.648 11c0 2.4 1.953 4.352 4.352 4.352 2.4 0 4.352-1.952 4.352-4.352 0-2.4-1.952-4.352-4.352-4.352zm0 7.253a2.904 2.904 0 0 1-2.901-2.9C8.099 9.4 9.4 8.098 11 8.098c1.6 0 2.901 1.301 2.901 2.901 0 1.6-1.301 2.901-2.9 2.901z" fill-opacity=".8"/>
</symbol><symbol id="icon-vk" viewBox="0 0 18 11">
    <path fill-rule="evenodd" clip-rule="evenodd" d="M17.269.956c.12-.401 0-.697-.574-.697H14.8c-.466 0-.689.238-.812.508l-.024.057c-.114.27-1.04 2.42-2.32 3.849-.441.442-.642.582-.883.582-.12 0-.295-.14-.295-.542V.956c0-.482-.14-.697-.542-.697h-2.98c-.301 0-.482.224-.482.436 0 .457.683.563.753 1.848v2.793c0 .612-.11.723-.352.723-.642 0-2.206-2.361-3.134-5.062C3.547.47 3.364.259 2.88.259H.983c-.541 0-.65.255-.65.537 0 .502.643 2.993 2.994 6.288 1.567 2.25 3.774 3.47 5.783 3.47 1.206 0 1.355-.272 1.355-.738v-1.7c0-.543.114-.65.495-.65.282 0 .764.14 1.89 1.225 1.285 1.285 1.497 1.862 2.22 1.862h1.896c.542 0 .813-.27.657-.805-.171-.533-.785-1.306-1.6-2.222-.442-.523-1.105-1.085-1.305-1.366-.251-.323-.215-.485-.061-.745.04-.066.082-.13.127-.193.379-.541 2.268-3.272 2.485-4.266z"/>
</symbol><symbol id="icon-whatsapp" viewBox="0 0 16 17">
    <path d="M13.823 3.156A7.38 7.38 0 0 0 8.535.943c-4.18 0-7.542 3.402-7.5 7.542 0 1.312.368 2.583.983 3.73L.952 16.11l3.976-1.025a7.32 7.32 0 0 0 3.566.902c4.14 0 7.502-3.403 7.502-7.543a7.44 7.44 0 0 0-2.173-5.288zm-5.288 11.56a6.09 6.09 0 0 1-3.156-.861l-.246-.123-2.377.615.615-2.337-.164-.245C1.403 8.854 2.264 5 5.215 3.197c2.952-1.803 6.764-.942 8.567 2.009 1.804 2.951.943 6.763-2.008 8.567a5.977 5.977 0 0 1-3.239.943zm3.608-4.55l-.451-.205s-.656-.287-1.066-.492c-.041 0-.082-.041-.123-.041a.593.593 0 0 0-.287.082s-.04.041-.615.697a.225.225 0 0 1-.205.123h-.04a.31.31 0 0 1-.165-.082l-.205-.082c-.45-.205-.86-.451-1.188-.779-.082-.082-.205-.164-.287-.246-.287-.287-.574-.615-.78-.984l-.04-.082c-.041-.04-.041-.082-.082-.164 0-.082 0-.164.04-.205 0 0 .165-.205.288-.328.082-.082.123-.205.205-.286.082-.123.123-.287.082-.41-.041-.205-.533-1.312-.656-1.558a.474.474 0 0 0-.287-.205H5.83c-.082 0-.164.041-.246.041l-.04.041c-.083.041-.165.123-.247.164-.082.082-.123.164-.205.246a2.09 2.09 0 0 0-.45 1.27c0 .329.081.656.204.943l.041.123c.37.78.861 1.476 1.517 2.09l.164.165c.123.123.246.205.328.328a7.326 7.326 0 0 0 2.951 1.557c.123.041.287.041.41.082h.41c.205 0 .45-.082.615-.163.123-.082.205-.082.287-.164l.082-.082c.082-.082.164-.123.246-.205.082-.082.164-.164.205-.246.082-.164.123-.37.164-.574v-.287s-.041-.041-.123-.082z"/>
</symbol></svg>