<svg width="30" height="30" viewBox="0 0 30 30" fill="none" xmlns="http://www.w3.org/2000/svg">
<rect width="30" height="30" rx="4" fill="#419FD9"/>
<path fill-rule="evenodd" clip-rule="evenodd" d="M18.5131 20.9822C19.4218 21.3797 19.7625 20.5468 19.7625 20.5468L22.1667 8.46928C22.1477 7.65528 21.0498 8.14746 21.0498 8.14746L7.59039 13.429C7.59039 13.429 6.94676 13.6562 7.00355 14.0537C7.06034 14.4512 7.57146 14.6405 7.57146 14.6405L10.96 15.7764C10.96 15.7764 11.9822 19.127 12.1904 19.7706C12.3797 20.3953 12.5501 20.4143 12.5501 20.4143C12.7394 20.49 12.9098 20.3575 12.9098 20.3575L15.1057 18.3698L18.5131 20.9822ZM19.0997 10.6084C19.0997 10.6084 19.573 10.3244 19.554 10.6084C19.554 10.6084 19.6297 10.6462 19.3836 10.9113C19.1565 11.1384 13.7992 15.9467 13.0799 16.5903C13.0231 16.6282 12.9852 16.685 12.9852 16.7607L12.777 18.5402C12.7391 18.7295 12.493 18.7484 12.4363 18.578L11.5465 15.6628C11.5087 15.5492 11.5465 15.4167 11.6601 15.3409L19.0997 10.6084Z" fill="white"/>
</svg>
